<svg width="436" height="131" viewBox="0 0 436 131" fill="none" xmlns="http://www.w3.org/2000/svg">
<path d="M187.5 128.5V93.5H148.6V128.5H115.8V44.9C115.8 17.5 133.5 0.599976 168 0.599976C202.8 0.599976 220.2 17.4 220.2 44.9V128.5H187.5ZM148.6 65.5H187.5V48C187.5 35.2 181.9 28.5 168 28.5C154.4 28.5 148.6 35.2 148.6 48V65.5Z" fill="#001b56"/>
<path d="M224.3 2.19897H258.3L274.8 91.699C276 97.299 277.8 100.099 282.5 100.099C286.7 100.099 289.4 97.199 290.2 91.699L307.4 2.19897H341L321.1 97.799C316.6 118.699 307.5 130.099 287.8 130.099H277.9C260.2 130.099 248.6 117.999 244.4 97.799L224.3 2.19897Z" fill="#001b56"/>
<path d="M435.7 2.19897V29.699H380V52.199H424.1V77.099H380V100.999H435.7V128.499H348V2.19897H435.7Z" fill="#001b56"/>
<path d="M51.2001 2.19897C85.4001 2.19897 103.2 17.499 103.2 40.599V58.299C103.2 81.199 87.5001 96.499 56.7001 96.499H45.7001V67.599H51.3001C64.1001 67.599 70.5001 62.699 70.5001 52.999V44.899C70.5001 35.099 64.1001 30.299 51.3001 30.299H32.8001V128.599H0.100098V2.19897H51.2001Z" fill="#001b56"/>
</svg>
